<svg height="1024mm" stroke-miterlimit="10" style="fill-rule:nonzero;clip-rule:evenodd;stroke-linecap:round;stroke-linejoin:round" viewBox="0 0 2905.88 2903.04" width="1025mm" xml:space="preserve" xmlns="http://www.w3.org/2000/svg"><clipPath id="a"><path d="M0 0h2905.88v2903.04H0z"/></clipPath><g clip-path="url(#a)"><path d="M-1.417 2177.28c0 400.83 325.25 725.76 726.468 725.76H2177.99c401.22 0 726.47-324.93 726.47-725.76V725.76C2904.46 324.934 2579.21 0 2177.99 0H725.051C323.833 0-1.418 324.934-1.418 725.76z" fill="#2d6b74"/><path d="M781.5 414.433c-98.142 17.104-171.444 90.405-191.398 190.584-7.33 37.058-8.552 114.431-2.036 155.562 24.841 162.484 105.473 329.041 242.302 501.301 39.908 50.09 57.419 69.64 111.581 125.43 26.063 26.87 51.718 53.75 57.012 59.86l4.629 5.23c2.91 3.29 3.73 7.93 2.14 12.02l-6.769 17.36c-13.846 35.02-13.438 98.15 1.219 136.43 14.66 38.68 33.8 68.82 63.53 99.77 13.85 14.66 25.25 28.91 25.25 31.35 0 2.45-19.14 62.72-42.76 133.98-23.62 71.27-42.76 133.98-42.76 138.87 0 15.06 11.81 21.99 43.98 25.25l18.48 1.77c6.28.6 10.96 6.06 10.59 12.36l-.56 9.48c-.89 14.82-284.405 226.25-284.405 226.25s-26.232 22.28-26.075 41.59c.576 70.87-14.175 70.87-28.35 70.87h-40.875c-16.569 0-30 13.43-30 30v39.22c0 16.57 13.431 30 30 30H1897.8c16.57 0 30-13.43 30-30v-39.22c0-16.57-13.43-30-30-30h-40.88c-14.17 0-28.35 0-28.35-70.87 0-17.41-33.67-41.59-33.67-41.59s-287.3-226.62-288.53-232.76l-.44-2.27c-1.3-6.69 3.36-13.08 10.13-13.88l11.49-1.36c13.03-1.22 26.06-2.85 29.32-3.26 2.85-.41 8.14-4.48 10.99-8.96 4.89-7.74 2.04-19.55-26.88-105.47-17.91-52.94-34.61-100.18-37.05-105.07-2.45-4.48-3.26-8.96-2.45-10.18 1.22-.81 15.48 4.08 31.77 11 104.66 44.79 219.09 78.19 329.45 96.1 60.27 9.78 198.32 9.78 254.51-.4 143.76-25.25 221.13-88.78 238.64-196.29 22.81-139.68-100.58-393.79-300.94-621.43l-38.55-43.74c-2.4-2.72-3.4-6.4-2.72-9.96l13.17-68.47c7.32-36.585 79.14-402.449 79.14-402.449s-3.78 23.217 2.12-10.8-27.25-52.352-74.59-38.61c-47.33 13.742-17.18 4.594-17.18 4.594S1573 674.85 1520.62 690.128c-19.14 5.701-119.72 35.836-223.97 67.193s-197.51 59.048-207.28 61.899c-34.21 8.959-47.65 35.836-26.47 52.532 16.32 12.85 254.58-57.525 254.58-57.525l157.94-47.947c56.61-17.104 96.92-27.285 99.77-25.248 2.45 1.629 24.03 17.918 48.05 35.429l30.5 22.513c6.43 4.752 6.33 14.413-.22 19.02l-15.61 10.999c-15.89 11.403-71.27 51.311-122.99 88.369s-132.35 94.478-179.59 127.868c-46.83 33.4-90.4 65.57-96.51 71.67-21.18 20.77-10.18 45.61 20.77 45.61 13.03 0 22.8-4.88 52.94-26.06 43.98-30.95 277.32-199.134 352.66-253.702 51.31-37.873 52.94-38.687 61.08-31.357 71.68 63.121 151.46 122.439 157.56 117.67 5.68-4.452 4.87-64.299-1.36-51.699-1.97 3.996-11.32 0-11.32 0l-46.68-35.031s-68.88-55.067-68.88-63.111c0-13.4 93.8-86.024 93.8-86.024l64.21-51.727s10.5-7.477 11.78-7.829c12.63-3.464 43.16 3.887 41.11 18.619-1.44 10.282-12.22 40.847-12.22 40.847l-60.88 160.13s-11.56 26.685-12.42 26.494c-21.61-4.788-136.37 307.73-136.37 312.42 0 15.07 8.55 24.84 25.25 28.91 23.62 6.11 26.87 1.23 98.95-156.78 21.99-48.05 40.73-88.37 41.95-89.59.81-1.22 10.59 7.74 21.99 19.55 13.03 13.44 19.55 23.62 17.92 27.69-1.22 3.26-17.92 87.96-37.06 188.14s-37.47 195.47-40.72 212.17c-8.96 44.38-8.15 59.86 4.07 72.08 13.44 13.43 32.58 12.21 43.17-2.45 4.88-6.92 17.91-69.23 42.35-205.65 19.14-107.51 36.24-198.73 37.87-202.8 2.44-5.7 12.62 4.48 51.31 53.35 161.26 202.8 242.71 368.13 242.71 493.15 0 206.47-307.87 190.99-698.81-34.61-54.97-31.36-193.43-123.39-248-164.93-114.02-85.92-286.28-244.74-374.652-345.74-148.639-169.813-251.261-346.55-275.287-475.642-13.846-74.931 11.81-138.459 68.415-167.372 54.976-28.099 175.516-19.547 312.754 22.398 98.14 29.32 230.9 87.554 341.66 149.453 0 0 37.01 22.941 63.07 34.346 10.35 4.528 18.97 9.293 22.86 8.026 13.69-4.46 50.5-13.051 50.5-13.051s-141.31-86.74-207.28-119.726c-112.81-57.419-155.16-75.745-236.2-102.215-143.342-47.646-245.15-61.899-331.89-46.424m929.93 359.644a11.73 11.73 0 0 1-13.63-.922l-51.24-42.227c-7.04-5.797-5.06-17.051 3.53-20.099l226.86-80.508a11.72 11.72 0 0 1 10.4 1.277l10.99 7.286c7.13 4.725 6.97 15.245-.31 19.744zm264.66 211.003c-1.98 8.318-11.9 11.794-18.64 6.526l-22.69-17.759a11.73 11.73 0 0 1-4.11-12.243l67.38-253.8a11.716 11.716 0 0 1 11.33-8.717h19.78c7.57 0 13.16 7.067 11.41 14.433zm-835.82 632.31c-.81 5.7-6.92 21.58-13.44 35.84l-3.44 7.73c-3.6 8.11-14.54 9.43-19.98 2.43l-3.46-4.46c-26.06-34.62-40.31-67.6-42.75-99.77-.75-10.46 11.55-16.57 19.43-9.65l22.1 19.42c37.87 32.99 43.58 39.5 41.54 48.46m214.1 352.24c3.08 7.7-2.59 16.08-10.89 16.08h-235.32c-8.12 0-13.78-8.05-11.03-15.7l111.46-309.63c3.66-10.15 17.92-10.4 21.92-.38zm-139.97 174.84c11.04 0 15.96 13.86 7.4 20.82l-183.79 149.49c-2.09 1.7-4.71 2.63-7.4 2.63h-76.236c-11.036 0-15.96-13.86-7.398-20.83l183.794-149.48c2.09-1.7 4.7-2.63 7.4-2.63zm434.65 152.37c8.17 7.12 3.14 20.57-7.7 20.57h-77.71c-2.83 0-5.57-1.03-7.7-2.89l-171.54-149.48c-8.17-7.12-3.14-20.57 7.7-20.57h77.71c2.83 0 5.57 1.03 7.7 2.89zm-456.51 20.57c-10.51 0-15.72-12.77-8.2-20.12l95.44-93.22c4.19-4.09 10.76-4.47 15.38-.88l120.21 93.23c8.83 6.84 3.99 20.99-7.19 20.99z" fill="#6a999f"/><path d="M852.969 464.964c-36.479.401-66.322 5.776-86.938 16.313-56.605 28.913-82.252 92.444-68.406 167.375 24.027 129.092 126.642 305.841 275.281 475.658 88.374 100.99 260.634 259.79 374.654 345.72 54.57 41.53 193.03 133.58 248 164.93 390.94 225.61 698.82 241.09 698.82 34.63 0-125.02-81.46-290.36-242.72-493.16-38.69-48.86-48.87-59.04-51.32-53.34-1.63 4.07-18.73 95.27-37.87 202.78-24.43 136.42-37.46 198.73-42.35 205.66-10.58 14.66-29.74 15.87-43.18 2.43-12.22-12.21-13.02-27.67-4.06-72.06 3.25-16.69 21.57-112.01 40.71-212.19 19.14-100.17 35.84-184.86 37.07-188.12 1.62-4.07-4.88-14.25-17.91-27.69-11.4-11.81-21.19-20.78-22-19.56-1.22 1.22-19.95 41.54-41.94 89.59-72.08 158.01-75.35 162.89-98.97 156.78-16.69-4.07-24.4-13.38-24.4-27.26 0-13.87 120.78-264.969 114.71-274.297-6.07-9.327-74.01-55.381-133.87-108.095-8.14-7.33-9.78-6.529-61.09 31.344-75.34 54.569-308.68 222.768-352.66 253.718-30.13 21.18-39.9 26.06-52.94 26.06-30.95 0-41.95-24.85-20.78-45.62 6.11-6.11 49.7-38.27 96.53-71.66 47.24-33.39 127.85-90.815 179.57-127.873 51.71-37.058 107.11-76.973 123-88.375l28.9-20.375-43.56-32.157c-24.03-17.511-45.62-33.808-48.06-35.437-2.85-2.036-43.18 8.146-99.78 25.25-61.8 18.759-157.94 47.969-157.94 47.969s-238.24 70.349-254.56 57.5c-21.18-16.697-7.74-43.573 26.47-52.532 9.77-2.85 103.03-30.518 207.28-61.875 95.68-28.779 176.19-52.912 205.56-61.687-4.55-1.115-11.16-4.503-18.72-7.813-26.06-11.404-63.06-34.343-63.06-34.343-110.77-61.899-243.52-120.148-341.66-149.469-85.771-26.216-165.013-39.387-225.811-38.719" fill="#a8c7ca"/></g></svg>